<svg width="76" height="76" viewBox="0 0 76 76" fill="none" xmlns="http://www.w3.org/2000/svg">
<rect x="6" y="37.8198" width="45" height="45" transform="rotate(-45 6 37.8198)" fill="#050C0A" fill-opacity="0.29"/>
<rect x="3.17157" y="37.8198" width="49" height="49" transform="rotate(-45 3.17157 37.8198)" stroke="#F8E9C3" stroke-opacity="0.5" stroke-width="4"/>
<path d="M50.289 47.162C48.885 47.162 47.535 46.937 46.239 46.487C44.961 46.037 43.971 45.443 43.269 44.705L44.052 43.166C44.736 43.85 45.645 44.408 46.779 44.84C47.913 45.254 49.083 45.461 50.289 45.461C51.981 45.461 53.25 45.155 54.096 44.543C54.942 43.913 55.365 43.103 55.365 42.113C55.365 41.357 55.131 40.754 54.663 40.304C54.213 39.854 53.655 39.512 52.989 39.278C52.323 39.026 51.396 38.756 50.208 38.468C48.786 38.108 47.652 37.766 46.806 37.442C45.96 37.1 45.231 36.587 44.619 35.903C44.025 35.219 43.728 34.292 43.728 33.122C43.728 32.168 43.98 31.304 44.484 30.53C44.988 29.738 45.762 29.108 46.806 28.64C47.85 28.172 49.146 27.938 50.694 27.938C51.774 27.938 52.827 28.091 53.853 28.397C54.897 28.685 55.797 29.09 56.553 29.612L55.878 31.205C55.086 30.683 54.24 30.296 53.34 30.044C52.44 29.774 51.558 29.639 50.694 29.639C49.038 29.639 47.787 29.963 46.941 30.611C46.113 31.241 45.699 32.06 45.699 33.068C45.699 33.824 45.924 34.436 46.374 34.904C46.842 35.354 47.418 35.705 48.102 35.957C48.804 36.191 49.74 36.452 50.91 36.74C52.296 37.082 53.412 37.424 54.258 37.766C55.122 38.09 55.851 38.594 56.445 39.278C57.039 39.944 57.336 40.853 57.336 42.005C57.336 42.959 57.075 43.832 56.553 44.624C56.049 45.398 55.266 46.019 54.204 46.487C53.142 46.937 51.837 47.162 50.289 47.162Z" fill="#29AB7C"/>
<path d="M51.8115 24.4V51H49.1135V29.72L38.6635 47.618H37.3335L26.8835 29.834V51H24.1855V24.4H26.5035L38.0555 44.122L49.4935 24.4H51.8115Z" fill="#65E0E8" fill-opacity="0.6"/>
</svg>